<svg width="58" height="58" viewBox="0 0 58 58" fill="none" xmlns="http://www.w3.org/2000/svg">
<path d="M14 47.3333V49H17.3333V47.3333H14ZM40.6667 47.3333V49H44V47.3333H40.6667ZM17.3333 47.3333V45.6667H14V47.3333H17.3333ZM25.6667 37.3333H32.3333V34H25.6667V37.3333ZM40.6667 45.6667V47.3333H44V45.6667H40.6667ZM32.3333 37.3333C34.5435 37.3333 36.6631 38.2113 38.2259 39.7741C39.7887 41.3369 40.6667 43.4565 40.6667 45.6667H44C44 42.5725 42.7708 39.605 40.5829 37.4171C38.395 35.2292 35.4275 34 32.3333 34V37.3333ZM17.3333 45.6667C17.3333 43.4565 18.2113 41.3369 19.7741 39.7741C21.3369 38.2113 23.4565 37.3333 25.6667 37.3333V34C22.5725 34 19.605 35.2292 17.4171 37.4171C15.2292 39.605 14 42.5725 14 45.6667H17.3333ZM29 14C26.7899 14 24.6702 14.878 23.1074 16.4408C21.5446 18.0036 20.6667 20.1232 20.6667 22.3333H24C24 21.0073 24.5268 19.7355 25.4645 18.7978C26.4021 17.8601 27.6739 17.3333 29 17.3333V14ZM37.3333 22.3333C37.3333 20.1232 36.4554 18.0036 34.8926 16.4408C33.3298 14.878 31.2101 14 29 14V17.3333C30.3261 17.3333 31.5979 17.8601 32.5355 18.7978C33.4732 19.7355 34 21.0073 34 22.3333H37.3333ZM29 30.6667C31.2101 30.6667 33.3298 29.7887 34.8926 28.2259C36.4554 26.6631 37.3333 24.5435 37.3333 22.3333H34C34 23.6594 33.4732 24.9312 32.5355 25.8689C31.5979 26.8065 30.3261 27.3333 29 27.3333V30.6667ZM29 27.3333C27.6739 27.3333 26.4021 26.8065 25.4645 25.8689C24.5268 24.9312 24 23.6594 24 22.3333H20.6667C20.6667 24.5435 21.5446 26.6631 23.1074 28.2259C24.6702 29.7887 26.7899 30.6667 29 30.6667V27.3333ZM29 50.6667C23.2536 50.6667 17.7426 48.3839 13.6794 44.3206C9.61606 40.2574 7.33333 34.7464 7.33333 29H4C4 35.6304 6.63392 41.9893 11.3223 46.6777C16.0107 51.3661 22.3696 54 29 54V50.6667ZM50.6667 29C50.6667 31.8453 50.1062 34.6628 49.0174 37.2915C47.9285 39.9202 46.3326 42.3087 44.3206 44.3206C42.3087 46.3326 39.9202 47.9285 37.2915 49.0174C34.6628 50.1062 31.8453 50.6667 29 50.6667V54C35.6304 54 41.9893 51.3661 46.6777 46.6777C51.3661 41.9893 54 35.6304 54 29H50.6667ZM29 7.33333C31.8453 7.33333 34.6628 7.89376 37.2915 8.98261C39.9202 10.0715 42.3087 11.6674 44.3206 13.6794C46.3326 15.6913 47.9285 18.0798 49.0174 20.7085C50.1062 23.3372 50.6667 26.1547 50.6667 29H54C54 22.3696 51.3661 16.0107 46.6777 11.3223C41.9893 6.63392 35.6304 4 29 4V7.33333ZM29 4C22.3696 4 16.0107 6.63392 11.3223 11.3223C6.63392 16.0107 4 22.3696 4 29H7.33333C7.33333 23.2536 9.61606 17.7426 13.6794 13.6794C17.7426 9.61606 23.2536 7.33333 29 7.33333V4Z" fill="#313E42"/>
</svg>
